<svg xmlns="http://www.w3.org/2000/svg" xmlns:xlink="http://www.w3.org/1999/xlink" width="834" height="718" viewBox="0 0 834 718">
    <defs>
        <path id="a" d="M206.35 110.964l791.078 423.194c68.19 36.479 93.897 121.33 57.418 189.52a140.026 140.026 0 0 1-51.944 54.33l-791.078 470.02c-66.485 39.503-152.403 17.629-191.905-48.855a140.026 140.026 0 0 1-19.645-71.525V234.433c0-77.334 62.691-140.026 140.025-140.026 23.044 0 45.732 5.687 66.05 16.557z"/>
    </defs>
    <g fill="none" fill-rule="evenodd" opacity=".097" transform="rotate(31 1138.37 850.338)">
        <mask id="b" fill="#fff">
            <use xlink:href="#a"/>
        </mask>
        <use fill="#D8D8D8" xlink:href="#a"/>
        <path fill="#7DE350" d="M-304.06 723.088h966.973c89.369 119.833 89.369 254.935 0 405.306-80.4 135.28 106.714 459.017-129.42 365.644-114.002-45.078-186.074-85.23-348.82 58.805-108.496 96.022-237.194 114.56-386.094 55.61l-102.64-885.365z" mask="url(#b)"/>
        <path fill="#CA53B8" d="M-136.468 197.684h967.572c393.14 333.247 544.996 574.989 455.571 725.226-80.45 135.16-716.08 407.123-656.678 224.855 69.732-213.962-73.07-316.62-224.23-167.515-62.602 61.75-107.908 124.144-207.892 167.515-122.64 53.2-181.834 13.556-177.585-118.93l-156.758-831.15z" mask="url(#b)"/>
        <path fill="#FF6768" d="M-137.493 2.858h967.865c392.265 404.298 543.671 681.647 454.219 832.047-80.475 135.305-178.423-27.71-432.1-68.211-114.012-18.203-131.564-18.203-242.346 0-110.783 18.203-256.346 160.603-361.398 151.77-177.225-14.903-305.972-167.73-386.24-458.479V2.858z" mask="url(#b)"/>
        <path fill="#FFC42C" d="M-138.15-356.338h967.457c149.563 289.712 264.865 511.186 345.907 664.42 112.833 213.348-380.242 150.492-518.86 213.348-137.528 62.36-140.545 63.85-368.558 197.301-137.362 80.396-246.916 55.25-328.66-75.439l-97.287-999.63z" mask="url(#b)"/>
        <path fill="#1EC9FF" d="M-131.803-497.614c146.18-183.175 469.02-183.175 968.522 0v738.033c-219.02-32.6-372.88 1.167-461.581 101.303-45.844 51.753-67.419 95.406-173.198 225.043-70.519 86.426-148.835 100.323-234.948 41.692-212.044-554.206-244.976-922.896-98.795-1106.071z" mask="url(#b)"/>
    </g>
</svg>
